<?xml version="1.0" encoding="utf-8"?>
<!-- Generator: Adobe Illustrator 19.2.1, SVG Export Plug-In . SVG Version: 6.00 Build 0)  -->
<svg version="1.1" id="Layer_1" xmlns="http://www.w3.org/2000/svg" xmlns:xlink="http://www.w3.org/1999/xlink" x="0px" y="0px"
	 width="1000px" height="1000px" viewBox="0 0 1000 1000" style="enable-background:new 0 0 1000 1000;" xml:space="preserve">
<style type="text/css">
	.st0{fill:#FFFFFF;}
</style>
<g>
	<path class="st0" d="M500,10C240.2,10,29.6,229.4,29.6,500S240.2,990,500,990s470.4-219.4,470.4-490S759.8,10,500,10L500,10z
		 M500,947.4C262.8,947.4,70.5,747.1,70.5,500S262.8,52.6,500,52.6S929.5,252.9,929.5,500C929.5,747,737.2,947.4,500,947.4
		L500,947.4z M697.6,378.6c-9.8,0-17.7,8.2-17.7,18.4c0,1.1,0,92.7,0,95.3c-1.5,98.6-80.8,178.9-176.7,178.9
		c-96.3,0-175.5-80.6-176.7-179.6c0-2.7,0-93.7,0-94.6c0-10.2-7.9-18.4-17.7-18.4c-9.8,0-17.7,8.2-17.7,18.4c0,0.8,0,94.3,0,95
		c1.3,113,87,206,194.4,215.2c0,0.2,0,0.4,0,0.6v49.9h-80.3c-9.8,0-17.7,8.2-17.7,18.4s7.9,18.4,17.7,18.4h196
		c9.8,0,17.7-8.2,17.7-18.4s-7.9-18.4-17.7-18.4h-80.3v-49.9c0-0.2,0-0.4,0-0.6c107-9.3,192.6-101.8,194.4-214.3
		c0-1.1,0-94.8,0-95.9C715.2,386.8,707.3,378.6,697.6,378.6L697.6,378.6z M503.2,616.3c67.2,0,121.9-56.5,121.9-125.9v-159
		c0-69.4-54.7-125.9-121.9-125.9S381.3,262,381.3,331.4v159.1C381.3,559.8,436,616.3,503.2,616.3L503.2,616.3z M416.6,331.4
		c0-49.1,38.8-89.1,86.6-89.1c47.7,0,86.6,40,86.6,89.1v159.1c0,49.1-38.8,89.1-86.6,89.1c-47.7,0-86.6-39.9-86.6-89.1L416.6,331.4
		L416.6,331.4z"/>
</g>
</svg>
